<svg xmlns="http://www.w3.org/2000/svg" viewBox="0 0 1338.69 336.05"><g fill="#111"><path d="M607.26 2.07h92.68v92.68h-92.68zM1062.8 198.11h137.95v137.95H1062.8zM0 81.36h93.46v254.69H0zM606.87 130.75h93.46v205.3h-93.46z"/><path d="m341.18 336.05-94.63-.15V208.91S243.21 83.32 90.46 83.32V.88s149.03-17.79 224.66 113.44c0 0 26.05 36.01 26.05 96.35v125.39Z"/><path d="M312.87.07s156.62-6.84 224.66 114.25c0 0 26.05 36.01 26.05 96.35v125.39l-94.63-.15V208.92S465.61 83.33 312.86 83.33l-25.18-.18V.07h25.18ZM1087.98.07s156.62-6.84 224.66 114.25c0 0 26.05 36.01 26.05 96.35v125.39l-94.63-.15V208.92s-3.34-125.59-156.09-125.59l-25.18-.18V.07h25.18ZM994.33.07S837.71-6.77 769.67 114.32c0 0-26.05 36.01-26.05 96.35v125.39l94.63-.15V208.92s3.34-125.59 156.09-125.59l25.18-.18V.07h-25.18Z"/></g></svg>